<svg width="22" height="23" viewBox="0 0 22 23" fill="none" xmlns="http://www.w3.org/2000/svg">
<path d="M8.00024 19.0001C3.00024 20.5001 3.00024 16.5001 1.00024 16.0001M15.0002 22.0001V18.1301C15.0378 17.6532 14.9733 17.1739 14.8113 16.7239C14.6492 16.2738 14.3932 15.8635 14.0602 15.5201C17.2002 15.1701 20.5002 13.9801 20.5002 8.52006C20.5 7.12389 19.9629 5.78126 19.0002 4.77006C19.4561 3.54857 19.4239 2.19841 18.9102 1.00006C18.9102 1.00006 17.7302 0.65006 15.0002 2.48006C12.7083 1.85888 10.2922 1.85888 8.00024 2.48006C5.27024 0.65006 4.09024 1.00006 4.09024 1.00006C3.57662 2.19841 3.54439 3.54857 4.00024 4.77006C3.03037 5.78876 2.49277 7.14352 2.50024 8.55006C2.50024 13.9701 5.80024 15.1601 8.94024 15.5501C8.61124 15.89 8.35751 16.2955 8.19555 16.74C8.0336 17.1845 7.96705 17.6581 8.00024 18.1301V22.0001" stroke="#434E78" stroke-opacity="0.55" stroke-width="2" stroke-linecap="round" stroke-linejoin="round"/>
</svg>
