<svg width="1158" height="828" viewBox="0 0 1158 828" fill="none" xmlns="http://www.w3.org/2000/svg">
<path d="M835.295 597.24C835.295 651.275 809.865 695.082 778.495 695.082C747.125 695.082 721.695 651.275 721.695 597.24V447.969H736.506V597.24C736.506 637.186 755.306 669.569 778.495 669.569C801.684 669.569 820.483 637.185 820.484 597.24V447.775H835.295V597.24Z" fill="#FF9292"/>
<path d="M854.77 603.052C854.77 675.606 820.624 734.423 778.504 734.423C736.383 734.423 702.237 675.607 702.237 603.052V447.969H717.049V603.052C717.049 661.516 744.554 715.881 778.495 715.881C812.435 715.88 839.958 661.516 839.959 603.052V447.775H854.77V603.052Z" fill="#FF9292"/>
<path d="M681.111 319.926V136.606H592.518H503.925V319.926H592.518H681.111Z" stroke="#FF9292" stroke-width="20.4818"/>
<path d="M641.065 282.881V270.744C641.065 264.307 638.508 258.133 633.956 253.58C629.403 249.028 623.229 246.471 616.792 246.471H568.245C561.807 246.471 555.633 249.028 551.081 253.58C546.529 258.133 543.972 264.307 543.972 270.744V282.881M616.792 197.924C616.792 211.33 605.924 222.198 592.518 222.198C579.113 222.198 568.245 211.33 568.245 197.924C568.245 184.519 579.113 173.651 592.518 173.651C605.924 173.651 616.792 184.519 616.792 197.924Z" stroke="#434E78" stroke-width="16.3854" stroke-linecap="round" stroke-linejoin="round"/>
<path d="M1013.35 282.881V270.744C1013.35 264.307 1010.8 258.133 1006.25 253.58C1001.69 249.028 995.519 246.471 989.081 246.471H940.535C934.097 246.471 927.923 249.028 923.371 253.58C918.819 258.133 916.262 264.307 916.262 270.744V282.881M989.081 197.924C989.081 211.33 978.214 222.198 964.808 222.198C951.402 222.198 940.535 211.33 940.535 197.924C940.535 184.519 951.402 173.651 964.808 173.651C978.214 173.651 989.081 184.519 989.081 197.924Z" stroke="#434E78" stroke-width="16.3854" stroke-linecap="round" stroke-linejoin="round"/>
<path d="M1052.53 319.926V136.606H964.809H877.091V319.926H964.809H1052.53Z" stroke="#FF9292" stroke-width="20.4818"/>
<path fill-rule="evenodd" clip-rule="evenodd" d="M1093.57 8.04019C1128.92 8.04029 1157.57 36.694 1157.57 72.0402V384.492C1157.57 419.838 1128.92 448.492 1093.57 448.492H463.434C428.088 448.492 399.435 419.838 399.434 384.492V72.0402C399.434 36.694 428.088 8.04025 463.434 8.04019H1093.57ZM463.434 24.0402C436.925 24.0403 415.434 45.5306 415.434 72.0402V384.492L415.438 385.112C415.768 411.13 436.797 432.159 462.814 432.488L463.434 432.492H1093.57L1094.19 432.488C1120.21 432.159 1141.24 411.13 1141.57 385.112L1141.57 384.492V72.0402C1141.57 45.7376 1120.42 24.3762 1094.19 24.0441L1093.57 24.0402H463.434ZM1081.47 30.8468C1107.98 30.8468 1129.47 52.3373 1129.47 78.8468V377.684L1129.46 378.304C1129.13 404.321 1108.11 425.35 1082.09 425.68L1081.47 425.684H475.536L474.916 425.68C448.898 425.35 427.869 404.321 427.54 378.304L427.536 377.684V78.8468C427.536 52.3373 449.026 30.8469 475.536 30.8468H1081.47ZM475.536 46.8468C457.863 46.8469 443.536 61.1739 443.536 78.8468V377.684C443.536 395.357 457.863 409.684 475.536 409.684H1081.47C1099.14 409.684 1113.47 395.357 1113.47 377.684V78.8468C1113.47 61.1739 1099.14 46.8468 1081.47 46.8468H475.536Z" fill="#434E78"/>
<path d="M100.8 725.256C99.9467 725.256 98.9867 724.936 97.92 724.296C96.8533 723.656 96.1067 722.269 95.68 720.136L47.36 523.976C47.1467 522.483 46.5067 521.843 45.44 522.056C44.3733 522.056 43.84 522.803 43.84 524.296L37.44 700.936C37.2267 706.909 38.1867 711.496 40.32 714.696C42.4533 717.683 46.1867 719.603 51.52 720.456L55.68 721.096C58.4533 721.309 59.84 722.589 59.84 724.936C59.84 727.283 58.24 728.456 55.04 728.456H9.28C6.08 728.456 4.48 727.283 4.48 724.936C4.48 722.589 5.86667 721.309 8.64 721.096L12.8 720.456C18.3467 719.603 22.08 717.683 24 714.696C26.1333 711.496 27.3067 706.909 27.52 700.936L33.92 519.176C34.1333 514.696 33.4933 511.709 32 510.216C30.5067 508.723 27.3067 507.549 22.4 506.696L15.04 505.416C12.2667 504.776 10.88 503.496 10.88 501.576C10.88 499.229 12.48 498.056 15.68 498.056H54.08C60.6933 498.056 64.7467 501.256 66.24 507.656L104.96 667.336C105.387 668.829 106.027 669.576 106.88 669.576C107.947 669.576 108.587 668.829 108.8 667.336L149.12 506.056C150.4 500.723 153.813 498.056 159.36 498.056H197.12C200.32 498.056 201.92 499.229 201.92 501.576C201.92 503.496 200.533 504.776 197.76 505.416L190.4 506.696C185.92 507.549 182.933 508.723 181.44 510.216C179.947 511.709 179.307 514.696 179.52 519.176L185.92 707.336C186.133 711.816 186.88 714.803 188.16 716.296C189.44 717.789 192.32 718.963 196.8 719.816L204.16 721.096C206.933 721.736 208.32 723.016 208.32 724.936C208.32 727.283 206.72 728.456 203.52 728.456H145.6C142.4 728.456 140.8 727.283 140.8 724.936C140.8 723.016 142.187 721.736 144.96 721.096L152.32 719.816C156.8 718.963 159.787 717.789 161.28 716.296C162.773 714.803 163.413 711.816 163.2 707.336L157.76 524.296C157.76 522.803 157.227 522.056 156.16 522.056C155.307 521.843 154.667 522.376 154.24 523.656L105.6 720.136C105.173 722.269 104.427 723.656 103.36 724.296C102.507 724.936 101.653 725.256 100.8 725.256ZM221.193 728.456C217.993 728.456 216.393 727.283 216.393 724.936C216.393 723.016 217.779 721.736 220.553 721.096L227.913 719.816C232.393 718.963 235.273 717.789 236.553 716.296C238.046 714.803 238.793 711.816 238.793 707.336V519.176C238.793 514.696 238.046 511.709 236.553 510.216C235.273 508.723 232.393 507.549 227.913 506.696L220.553 505.416C217.779 504.776 216.393 503.496 216.393 501.576C216.393 499.229 217.993 498.056 221.193 498.056H328.713C333.619 498.056 336.286 500.509 336.713 505.416L339.273 558.536C339.699 562.163 338.313 563.976 335.113 563.976C332.553 563.976 331.059 562.589 330.633 559.816L328.713 547.976C326.366 533.469 321.566 522.909 314.313 516.296C307.059 509.469 297.033 506.056 284.233 506.056C275.699 506.056 269.726 507.336 266.313 509.896C263.113 512.243 261.513 516.509 261.513 522.696V599.816C261.513 602.803 263.006 604.296 265.993 604.296H281.993C291.379 604.296 297.139 599.283 299.273 589.256L302.473 573.256C303.326 570.056 305.139 568.669 307.913 569.096C310.259 569.523 311.433 571.336 311.433 574.536V646.536C311.433 649.736 310.259 651.549 307.913 651.976C305.139 652.403 303.326 651.016 302.473 647.816L299.273 632.136C297.779 624.669 295.646 619.763 292.873 617.416C290.313 615.069 286.579 613.896 281.673 613.896H265.993C263.006 613.896 261.513 615.389 261.513 618.376V698.696C261.513 706.376 263.433 711.923 267.273 715.336C271.326 718.749 278.579 720.456 289.033 720.456C299.699 720.456 308.766 717.789 316.233 712.456C323.913 706.909 329.246 696.669 332.233 681.736L336.073 662.856C336.713 660.083 338.313 658.696 340.873 658.696C343.859 658.696 345.139 660.509 344.713 664.136L341.513 721.096C341.086 726.003 338.419 728.456 333.513 728.456H221.193ZM366.193 728.456C362.993 728.456 361.393 727.283 361.393 724.936C361.393 723.016 362.779 721.736 365.553 721.096L372.913 719.816C377.393 718.963 380.273 717.789 381.553 716.296C383.046 714.803 383.793 711.816 383.793 707.336V519.176C383.793 514.696 383.046 511.709 381.553 510.216C380.273 508.723 377.393 507.549 372.913 506.696L365.553 505.416C362.779 504.776 361.393 503.496 361.393 501.576C361.393 499.229 362.993 498.056 366.193 498.056H473.713C478.619 498.056 481.286 500.509 481.713 505.416L484.273 558.536C484.699 562.163 483.313 563.976 480.113 563.976C477.553 563.976 476.059 562.589 475.633 559.816L473.713 547.976C471.366 533.469 466.566 522.909 459.313 516.296C452.059 509.469 442.033 506.056 429.233 506.056C420.699 506.056 414.726 507.336 411.313 509.896C408.113 512.243 406.513 516.509 406.513 522.696V599.816C406.513 602.803 408.006 604.296 410.993 604.296H426.993C436.379 604.296 442.139 599.283 444.273 589.256L447.473 573.256C448.326 570.056 450.139 568.669 452.913 569.096C455.259 569.523 456.433 571.336 456.433 574.536V646.536C456.433 649.736 455.259 651.549 452.913 651.976C450.139 652.403 448.326 651.016 447.473 647.816L444.273 632.136C442.779 624.669 440.646 619.763 437.873 617.416C435.313 615.069 431.579 613.896 426.673 613.896H410.993C408.006 613.896 406.513 615.389 406.513 618.376V698.696C406.513 706.376 408.433 711.923 412.273 715.336C416.326 718.749 423.579 720.456 434.033 720.456C444.699 720.456 453.766 717.789 461.233 712.456C468.913 706.909 474.246 696.669 477.233 681.736L481.073 662.856C481.713 660.083 483.313 658.696 485.873 658.696C488.859 658.696 490.139 660.509 489.713 664.136L486.513 721.096C486.086 726.003 483.419 728.456 478.513 728.456H366.193ZM538.073 728.456C534.873 728.456 533.273 727.283 533.273 724.936C533.273 722.589 534.659 721.309 537.433 721.096L551.833 718.856C556.099 718.216 558.979 717.149 560.473 715.656C561.966 713.949 562.713 710.856 562.713 706.376V514.376C562.713 511.389 562.073 509.256 560.793 507.976C559.513 506.696 556.846 506.056 552.793 506.056C544.899 506.056 537.113 509.469 529.433 516.296C521.753 523.123 516.739 534.109 514.393 549.256L512.793 559.816C512.366 562.589 510.873 563.976 508.313 563.976C505.113 563.976 503.726 562.163 504.153 558.536L507.033 500.616C507.459 495.709 509.379 493.256 512.793 493.256C514.286 493.256 515.673 493.683 516.953 494.536C518.233 495.176 520.366 495.923 523.353 496.776C526.553 497.629 531.566 498.056 538.393 498.056H609.753C616.579 498.056 621.486 497.629 624.473 496.776C627.673 495.923 629.913 495.176 631.193 494.536C632.686 493.683 634.073 493.256 635.353 493.256C638.766 493.256 640.686 495.709 641.113 500.616L643.993 558.536C644.419 562.163 643.033 563.976 639.833 563.976C637.273 563.976 635.779 562.589 635.353 559.816L633.753 549.256C631.619 534.109 626.713 523.123 619.033 516.296C611.353 509.469 603.459 506.056 595.353 506.056C591.299 506.056 588.633 506.696 587.353 507.976C586.073 509.256 585.433 511.389 585.433 514.376V706.376C585.433 710.856 586.179 713.949 587.673 715.656C589.379 717.149 592.259 718.216 596.313 718.856L610.713 721.096C613.486 721.309 614.873 722.589 614.873 724.936C614.873 727.283 613.273 728.456 610.073 728.456H538.073Z" fill="#434E78"/>
<path d="M887.971 688.456C884.771 688.456 883.171 687.283 883.171 684.936C883.171 683.016 884.557 681.736 887.331 681.096L894.691 679.816C899.171 678.963 902.051 677.789 903.331 676.296C904.824 674.803 905.571 671.816 905.571 667.336V479.176C905.571 474.696 904.824 471.709 903.331 470.216C902.051 468.723 899.171 467.549 894.691 466.696L887.331 465.416C884.557 464.776 883.171 463.496 883.171 461.576C883.171 459.229 884.771 458.056 887.971 458.056H954.851C967.437 458.056 978.531 460.829 988.131 466.376C997.731 471.709 1005.2 479.176 1010.53 488.776C1015.86 498.376 1018.53 509.469 1018.53 522.056C1018.53 534.216 1015.86 544.989 1010.53 554.376C1005.2 563.763 997.837 571.123 988.451 576.456C979.064 581.576 968.184 584.136 955.811 584.136H932.771C929.784 584.136 928.291 585.629 928.291 588.616V666.056C928.291 670.536 929.144 673.629 930.851 675.336C932.557 676.829 936.397 678.109 942.371 679.176L954.211 681.096C956.557 681.523 957.731 682.696 957.731 684.616C957.731 687.176 956.131 688.456 952.931 688.456H887.971ZM928.291 558.536C928.291 570.269 935.437 576.136 949.731 576.136C963.597 576.136 974.477 571.229 982.371 561.416C990.477 551.603 994.531 538.163 994.531 521.096C994.531 503.603 990.477 490.056 982.371 480.456C974.264 470.856 962.744 466.056 947.811 466.056C934.797 466.056 928.291 470.323 928.291 478.856V558.536Z" fill="#FF9292"/>
</svg>
