<svg width="19" height="19" viewBox="0 0 19 19" fill="none" xmlns="http://www.w3.org/2000/svg">
<path d="M18.4618 10.29C18.3045 11.9922 17.6657 13.6144 16.6201 14.9668C15.5744 16.3192 14.1653 17.3458 12.5575 17.9265C10.9497 18.5073 9.2098 18.6181 7.54132 18.2461C5.87283 17.8741 4.34481 17.0345 3.13604 15.8258C1.92727 14.617 1.08775 13.089 0.715723 11.4205C0.343691 9.75202 0.454531 8.01208 1.03528 6.4043C1.61602 4.79651 2.64265 3.38737 3.99503 2.34175C5.34741 1.29614 6.96961 0.657305 8.67182 0.5C7.67523 1.84827 7.19566 3.50945 7.32035 5.18141C7.44503 6.85338 8.16568 8.42506 9.35122 9.6106C10.5368 10.7961 12.1084 11.5168 13.7804 11.6415C15.4524 11.7662 17.1135 11.2866 18.4618 10.29Z" stroke="#232323" stroke-linecap="round" stroke-linejoin="round"/>
</svg>
